<svg id="Layer_1" data-name="Layer 1" xmlns="http://www.w3.org/2000/svg" viewBox="0 0 512 512"><defs><style>.cls-1{fill:#ffd38d;}.cls-2{fill:#efeae6;}.cls-3{fill:#6d4135;}</style></defs><title>web-browser-filled</title><rect class="cls-1" x="21.33" y="149.33" width="469.33" height="341.33"/><rect class="cls-2" x="21.33" y="21.33" width="469.33" height="128"/><polyline class="cls-1" points="213.33 277.33 170.67 320 213.33 362.67"/><polyline class="cls-1" points="298.67 277.33 341.33 320 298.67 362.67"/><path class="cls-3" d="M490.67,0H21.33A21.33,21.33,0,0,0,0,21.33V490.67A21.33,21.33,0,0,0,21.33,512H490.67A21.33,21.33,0,0,0,512,490.67V21.33A21.33,21.33,0,0,0,490.67,0Zm-448,42.67H469.33V128H42.67ZM469.33,469.33H42.67V170.67H469.33Z"/><rect class="cls-3" x="64" y="64" width="42.67" height="42.67" rx="2" ry="2"/><rect class="cls-3" x="128" y="64" width="42.67" height="42.67" rx="2" ry="2"/><rect class="cls-3" x="192" y="64" width="42.67" height="42.67" rx="2" ry="2"/><path class="cls-3" d="M198.25,377.75a21.33,21.33,0,1,0,30.17-30.17L200.84,320l27.58-27.58a21.33,21.33,0,1,0-30.17-30.17l-42.67,42.67a21.33,21.33,0,0,0,0,30.17Z"/><path class="cls-3" d="M283.58,377.75a21.33,21.33,0,0,0,30.17,0l42.67-42.67a21.33,21.33,0,0,0,0-30.17l-42.67-42.67a21.33,21.33,0,1,0-30.17,30.17L311.16,320l-27.58,27.58A21.33,21.33,0,0,0,283.58,377.75Z"/></svg>