<svg id="Layer_1" data-name="Layer 1" xmlns="http://www.w3.org/2000/svg" viewBox="0 0 512 512"><title>web-browser-glyph</title><path d="M0,490.67A21.33,21.33,0,0,0,21.33,512H490.67A21.33,21.33,0,0,0,512,490.67V21.33A21.33,21.33,0,0,0,490.67,0H21.33A21.33,21.33,0,0,0,0,21.33ZM228.42,347.58a21.33,21.33,0,1,1-30.17,30.17l-42.67-42.67a21.33,21.33,0,0,1,0-30.17l42.67-42.67a21.33,21.33,0,1,1,30.17,30.17L200.84,320Zm55.17-55.17a21.33,21.33,0,0,1,30.17-30.17l42.67,42.67a21.33,21.33,0,0,1,0,30.17l-42.67,42.67a21.33,21.33,0,0,1-30.17-30.17L311.16,320ZM42.67,42.67H469.33V128H42.67Zm64,42.67A21.33,21.33,0,1,1,85.33,64,21.33,21.33,0,0,1,106.67,85.33Zm64,0A21.33,21.33,0,1,1,149.33,64,21.33,21.33,0,0,1,170.67,85.33Zm64,0A21.33,21.33,0,1,1,213.33,64,21.33,21.33,0,0,1,234.67,85.33Z"/></svg>